<?xml version="1.0" encoding="utf-8"?>
<!-- Generator: Adobe Illustrator 25.2.1, SVG Export Plug-In . SVG Version: 6.00 Build 0)  -->
<svg version="1.1" id="Layer_1" xmlns="http://www.w3.org/2000/svg" xmlns:xlink="http://www.w3.org/1999/xlink" x="0px" y="0px"
	 viewBox="0 0 612 792" style="enable-background:new 0 0 612 792;" xml:space="preserve">
<style type="text/css">
	.st0{fill:none;stroke:#D3D3D3;stroke-width:0.25;stroke-miterlimit:10;}
</style>
<g>
	<polyline class="st0" points="612.09,670.48 551.94,670.48 521.83,618.98 551.94,567.47 612.09,567.47 	"/>
	<polygon class="st0" points="446.29,730.41 416.18,678.9 446.29,627.4 506.5,627.4 536.55,678.9 506.5,730.41 	"/>
	<polygon class="st0" points="342.04,789.1 312,737.6 342.04,686.09 402.25,686.09 432.3,737.6 402.25,789.1 	"/>
	<polygon class="st0" points="342.5,555.4 312.44,503.9 342.5,452.39 402.65,452.39 432.75,503.9 402.65,555.4 	"/>
	<polygon class="st0" points="446.06,613.7 415.96,562.2 446.06,510.69 506.27,510.69 536.32,562.2 506.27,613.7 	"/>
</g>
</svg>
