<?xml version="1.0" encoding="utf-8"?>
<!-- Generator: Adobe Illustrator 25.2.1, SVG Export Plug-In . SVG Version: 6.00 Build 0)  -->
<svg version="1.1" id="Layer_1" xmlns="http://www.w3.org/2000/svg" xmlns:xlink="http://www.w3.org/1999/xlink" x="0px" y="0px"
	 viewBox="0 0 393.91 401.69" style="enable-background:new 0 0 393.91 401.69;" xml:space="preserve">
<style type="text/css">
	.st0{fill:none;stroke:#BCBEC0;stroke-width:0.25;stroke-miterlimit:10;}
</style>
<g>
	<polygon class="st0" points="286.24,260.17 250.32,198.73 286.24,137.29 358,137.29 393.91,198.73 358,260.17 	"/>
	<polygon class="st0" points="160.21,331.67 124.29,270.22 160.21,208.78 232.03,208.78 267.88,270.22 232.03,331.67 	"/>
	<polygon class="st0" points="35.85,401.69 0,340.24 35.85,278.8 107.67,278.8 143.52,340.24 107.67,401.69 	"/>
	<polygon class="st0" points="36.38,122.88 0.54,61.44 36.38,0 108.14,0 144.06,61.44 108.14,122.88 	"/>
	<polygon class="st0" points="159.94,192.43 124.02,130.99 159.94,69.55 231.76,69.55 267.61,130.99 231.76,192.43 	"/>
</g>
</svg>
